<?xml version="1.0" encoding="utf-8"?>
<svg version="1.1" baseProfile="full"  width="25" height="25" viewBox="0 0 25 25"
		 xmlns="http://www.w3.org/2000/svg" xmlns:xlink="http://www.w3.org/1999/xlink" xmlns:ev="http://www.w3.org/2001/xml-events">
<desc></desc>
<defs>
<rect id="p" width="1" height="1" />
</defs>
<g fill="#000000">
<use x="2" y="2" xlink:href="#p" />
<use x="2" y="3" xlink:href="#p" />
<use x="2" y="4" xlink:href="#p" />
<use x="2" y="5" xlink:href="#p" />
<use x="2" y="6" xlink:href="#p" />
<use x="2" y="7" xlink:href="#p" />
<use x="2" y="8" xlink:href="#p" />
<use x="2" y="10" xlink:href="#p" />
<use x="2" y="14" xlink:href="#p" />
<use x="2" y="16" xlink:href="#p" />
<use x="2" y="17" xlink:href="#p" />
<use x="2" y="18" xlink:href="#p" />
<use x="2" y="19" xlink:href="#p" />
<use x="2" y="20" xlink:href="#p" />
<use x="2" y="21" xlink:href="#p" />
<use x="2" y="22" xlink:href="#p" />
<use x="3" y="2" xlink:href="#p" />
<use x="3" y="8" xlink:href="#p" />
<use x="3" y="10" xlink:href="#p" />
<use x="3" y="13" xlink:href="#p" />
<use x="3" y="14" xlink:href="#p" />
<use x="3" y="16" xlink:href="#p" />
<use x="3" y="22" xlink:href="#p" />
<use x="4" y="2" xlink:href="#p" />
<use x="4" y="4" xlink:href="#p" />
<use x="4" y="5" xlink:href="#p" />
<use x="4" y="6" xlink:href="#p" />
<use x="4" y="8" xlink:href="#p" />
<use x="4" y="11" xlink:href="#p" />
<use x="4" y="12" xlink:href="#p" />
<use x="4" y="16" xlink:href="#p" />
<use x="4" y="18" xlink:href="#p" />
<use x="4" y="19" xlink:href="#p" />
<use x="4" y="20" xlink:href="#p" />
<use x="4" y="22" xlink:href="#p" />
<use x="5" y="2" xlink:href="#p" />
<use x="5" y="4" xlink:href="#p" />
<use x="5" y="5" xlink:href="#p" />
<use x="5" y="6" xlink:href="#p" />
<use x="5" y="8" xlink:href="#p" />
<use x="5" y="12" xlink:href="#p" />
<use x="5" y="16" xlink:href="#p" />
<use x="5" y="18" xlink:href="#p" />
<use x="5" y="19" xlink:href="#p" />
<use x="5" y="20" xlink:href="#p" />
<use x="5" y="22" xlink:href="#p" />
<use x="6" y="2" xlink:href="#p" />
<use x="6" y="4" xlink:href="#p" />
<use x="6" y="5" xlink:href="#p" />
<use x="6" y="6" xlink:href="#p" />
<use x="6" y="8" xlink:href="#p" />
<use x="6" y="10" xlink:href="#p" />
<use x="6" y="11" xlink:href="#p" />
<use x="6" y="12" xlink:href="#p" />
<use x="6" y="13" xlink:href="#p" />
<use x="6" y="16" xlink:href="#p" />
<use x="6" y="18" xlink:href="#p" />
<use x="6" y="19" xlink:href="#p" />
<use x="6" y="20" xlink:href="#p" />
<use x="6" y="22" xlink:href="#p" />
<use x="7" y="2" xlink:href="#p" />
<use x="7" y="8" xlink:href="#p" />
<use x="7" y="10" xlink:href="#p" />
<use x="7" y="16" xlink:href="#p" />
<use x="7" y="22" xlink:href="#p" />
<use x="8" y="2" xlink:href="#p" />
<use x="8" y="3" xlink:href="#p" />
<use x="8" y="4" xlink:href="#p" />
<use x="8" y="5" xlink:href="#p" />
<use x="8" y="6" xlink:href="#p" />
<use x="8" y="7" xlink:href="#p" />
<use x="8" y="8" xlink:href="#p" />
<use x="8" y="10" xlink:href="#p" />
<use x="8" y="12" xlink:href="#p" />
<use x="8" y="14" xlink:href="#p" />
<use x="8" y="16" xlink:href="#p" />
<use x="8" y="17" xlink:href="#p" />
<use x="8" y="18" xlink:href="#p" />
<use x="8" y="19" xlink:href="#p" />
<use x="8" y="20" xlink:href="#p" />
<use x="8" y="21" xlink:href="#p" />
<use x="8" y="22" xlink:href="#p" />
<use x="9" y="12" xlink:href="#p" />
<use x="9" y="14" xlink:href="#p" />
<use x="10" y="2" xlink:href="#p" />
<use x="10" y="3" xlink:href="#p" />
<use x="10" y="4" xlink:href="#p" />
<use x="10" y="5" xlink:href="#p" />
<use x="10" y="7" xlink:href="#p" />
<use x="10" y="8" xlink:href="#p" />
<use x="10" y="12" xlink:href="#p" />
<use x="10" y="13" xlink:href="#p" />
<use x="10" y="14" xlink:href="#p" />
<use x="10" y="15" xlink:href="#p" />
<use x="10" y="17" xlink:href="#p" />
<use x="10" y="18" xlink:href="#p" />
<use x="10" y="21" xlink:href="#p" />
<use x="10" y="22" xlink:href="#p" />
<use x="11" y="3" xlink:href="#p" />
<use x="11" y="4" xlink:href="#p" />
<use x="11" y="6" xlink:href="#p" />
<use x="11" y="11" xlink:href="#p" />
<use x="11" y="12" xlink:href="#p" />
<use x="11" y="15" xlink:href="#p" />
<use x="11" y="16" xlink:href="#p" />
<use x="11" y="17" xlink:href="#p" />
<use x="11" y="19" xlink:href="#p" />
<use x="11" y="21" xlink:href="#p" />
<use x="11" y="22" xlink:href="#p" />
<use x="12" y="4" xlink:href="#p" />
<use x="12" y="5" xlink:href="#p" />
<use x="12" y="6" xlink:href="#p" />
<use x="12" y="7" xlink:href="#p" />
<use x="12" y="8" xlink:href="#p" />
<use x="12" y="11" xlink:href="#p" />
<use x="12" y="15" xlink:href="#p" />
<use x="12" y="16" xlink:href="#p" />
<use x="12" y="18" xlink:href="#p" />
<use x="12" y="19" xlink:href="#p" />
<use x="12" y="21" xlink:href="#p" />
<use x="13" y="3" xlink:href="#p" />
<use x="13" y="4" xlink:href="#p" />
<use x="13" y="6" xlink:href="#p" />
<use x="13" y="13" xlink:href="#p" />
<use x="13" y="14" xlink:href="#p" />
<use x="13" y="15" xlink:href="#p" />
<use x="13" y="16" xlink:href="#p" />
<use x="13" y="21" xlink:href="#p" />
<use x="13" y="22" xlink:href="#p" />
<use x="14" y="2" xlink:href="#p" />
<use x="14" y="4" xlink:href="#p" />
<use x="14" y="5" xlink:href="#p" />
<use x="14" y="6" xlink:href="#p" />
<use x="14" y="7" xlink:href="#p" />
<use x="14" y="8" xlink:href="#p" />
<use x="14" y="10" xlink:href="#p" />
<use x="14" y="11" xlink:href="#p" />
<use x="14" y="12" xlink:href="#p" />
<use x="14" y="13" xlink:href="#p" />
<use x="14" y="15" xlink:href="#p" />
<use x="14" y="18" xlink:href="#p" />
<use x="14" y="19" xlink:href="#p" />
<use x="14" y="20" xlink:href="#p" />
<use x="14" y="21" xlink:href="#p" />
<use x="15" y="11" xlink:href="#p" />
<use x="15" y="12" xlink:href="#p" />
<use x="15" y="17" xlink:href="#p" />
<use x="15" y="18" xlink:href="#p" />
<use x="15" y="19" xlink:href="#p" />
<use x="15" y="20" xlink:href="#p" />
<use x="16" y="2" xlink:href="#p" />
<use x="16" y="3" xlink:href="#p" />
<use x="16" y="4" xlink:href="#p" />
<use x="16" y="5" xlink:href="#p" />
<use x="16" y="6" xlink:href="#p" />
<use x="16" y="7" xlink:href="#p" />
<use x="16" y="8" xlink:href="#p" />
<use x="16" y="11" xlink:href="#p" />
<use x="16" y="14" xlink:href="#p" />
<use x="16" y="16" xlink:href="#p" />
<use x="16" y="17" xlink:href="#p" />
<use x="16" y="18" xlink:href="#p" />
<use x="16" y="19" xlink:href="#p" />
<use x="16" y="22" xlink:href="#p" />
<use x="17" y="2" xlink:href="#p" />
<use x="17" y="8" xlink:href="#p" />
<use x="17" y="10" xlink:href="#p" />
<use x="17" y="13" xlink:href="#p" />
<use x="17" y="14" xlink:href="#p" />
<use x="17" y="15" xlink:href="#p" />
<use x="17" y="16" xlink:href="#p" />
<use x="17" y="21" xlink:href="#p" />
<use x="17" y="22" xlink:href="#p" />
<use x="18" y="2" xlink:href="#p" />
<use x="18" y="4" xlink:href="#p" />
<use x="18" y="5" xlink:href="#p" />
<use x="18" y="6" xlink:href="#p" />
<use x="18" y="8" xlink:href="#p" />
<use x="18" y="14" xlink:href="#p" />
<use x="18" y="16" xlink:href="#p" />
<use x="18" y="17" xlink:href="#p" />
<use x="18" y="22" xlink:href="#p" />
<use x="19" y="2" xlink:href="#p" />
<use x="19" y="4" xlink:href="#p" />
<use x="19" y="5" xlink:href="#p" />
<use x="19" y="6" xlink:href="#p" />
<use x="19" y="8" xlink:href="#p" />
<use x="19" y="10" xlink:href="#p" />
<use x="19" y="11" xlink:href="#p" />
<use x="19" y="15" xlink:href="#p" />
<use x="19" y="16" xlink:href="#p" />
<use x="19" y="19" xlink:href="#p" />
<use x="19" y="21" xlink:href="#p" />
<use x="20" y="2" xlink:href="#p" />
<use x="20" y="4" xlink:href="#p" />
<use x="20" y="5" xlink:href="#p" />
<use x="20" y="6" xlink:href="#p" />
<use x="20" y="8" xlink:href="#p" />
<use x="20" y="10" xlink:href="#p" />
<use x="20" y="12" xlink:href="#p" />
<use x="20" y="15" xlink:href="#p" />
<use x="20" y="19" xlink:href="#p" />
<use x="20" y="22" xlink:href="#p" />
<use x="21" y="2" xlink:href="#p" />
<use x="21" y="8" xlink:href="#p" />
<use x="21" y="10" xlink:href="#p" />
<use x="21" y="11" xlink:href="#p" />
<use x="21" y="12" xlink:href="#p" />
<use x="21" y="13" xlink:href="#p" />
<use x="21" y="14" xlink:href="#p" />
<use x="21" y="15" xlink:href="#p" />
<use x="21" y="16" xlink:href="#p" />
<use x="21" y="19" xlink:href="#p" />
<use x="22" y="2" xlink:href="#p" />
<use x="22" y="3" xlink:href="#p" />
<use x="22" y="4" xlink:href="#p" />
<use x="22" y="5" xlink:href="#p" />
<use x="22" y="6" xlink:href="#p" />
<use x="22" y="7" xlink:href="#p" />
<use x="22" y="8" xlink:href="#p" />
<use x="22" y="10" xlink:href="#p" />
<use x="22" y="13" xlink:href="#p" />
<use x="22" y="14" xlink:href="#p" />
<use x="22" y="18" xlink:href="#p" />
<use x="22" y="19" xlink:href="#p" />
<use x="22" y="22" xlink:href="#p" />
</g>

</svg>